<svg xmlns="http://www.w3.org/2000/svg"  viewBox="0 0 64 64" width="64px" height="64px"><linearGradient id="SVGID_1_" x1="32" x2="32" y1="-1095" y2="-1137" gradientTransform="matrix(1 0 0 -1 0 -1084)" gradientUnits="userSpaceOnUse"><stop offset="0" stop-color="#1a6dff"/><stop offset="1" stop-color="#c822ff"/></linearGradient><path fill="url(#SVGID_1_)" d="M53,13c2.8,0,5,2.2,5,5v28c0,2.8-2.2,5-5,5H11c-2.8,0-5-2.2-5-5V18c0-2.8,2.2-5,5-5H53 M53,11H11	c-3.9,0-7,3.1-7,7v28c0,3.9,3.1,7,7,7h42c3.9,0,7-3.1,7-7V18C60,14.1,56.9,11,53,11L53,11z"/><linearGradient id="SVGID_2_" x1="40" x2="40" y1="22.25" y2="37.491" gradientUnits="userSpaceOnUse"><stop offset="0" stop-color="#6dc7ff"/><stop offset="1" stop-color="#e6abff"/></linearGradient><path fill="url(#SVGID_2_)" d="M42,42h-7c-0.6,0-1-0.4-1-1v-2c0-0.6,0.4-1,1-1h7v-4.4l-5-1.2c-1.8-0.4-3-2-3-3.9V26c0-2.2,1.8-4,4-4h7 c0.6,0,1,0.4,1,1v2c0,0.6-0.4,1-1,1h-7v2.4l5,1.2c1.8,0.4,3,2,3,3.9V38C46,40.2,44.2,42,42,42z"/><g><linearGradient id="SVGID_3_" x1="24" x2="24" y1="22.25" y2="37.491" gradientUnits="userSpaceOnUse"><stop offset="0" stop-color="#6dc7ff"/><stop offset="1" stop-color="#e6abff"/></linearGradient><path fill="url(#SVGID_3_)" d="M26,42h-7c-0.6,0-1-0.4-1-1v-2c0-0.6,0.4-1,1-1h7v-4.4l-5-1.2c-1.8-0.4-3-2-3-3.9V26c0-2.2,1.8-4,4-4h7 c0.6,0,1,0.4,1,1v2c0,0.6-0.4,1-1,1h-7v2.4l5,1.2c1.8,0.4,3,2,3,3.9V38C30,40.2,28.2,42,26,42z"/></g></svg>