<svg xmlns="http://www.w3.org/2000/svg" viewBox="0 0 204 204" width="204px" height="204px">
  <linearGradient id="SVGID_1_" x1="32" x2="32" y1="-1599" y2="-1641" gradientTransform="matrix(1 0 0 -1 0 -1588)" gradientUnits="userSpaceOnUse">
    <stop offset="0" stop-color="#1a6dff"/>
    <stop offset="1" stop-color="#c822ff"/>
  </linearGradient>
  <path fill="url(#SVGID_1_)" d="M53,13c2.8,0,5,2.2,5,5v28c0,2.8-2.2,5-5,5H11c-2.8,0-5-2.2-5-5V18c0-2.8,2.2-5,5-5H53 M53,11H11	c-3.9,0-7,3.1-7,7v28c0,3.9,3.1,7,7,7h42c3.9,0,7-3.1,7-7V18C60,14.1,56.9,11,53,11L53,11z"/>
  <linearGradient id="SVGID_2_" x1="40" x2="40" y1="22" y2="33.775" gradientUnits="userSpaceOnUse">
    <stop offset="0" stop-color="#6dc7ff"/>
    <stop offset="1" stop-color="#e6abff"/>
  </linearGradient>
  <path fill="url(#SVGID_2_)" d="M42,42h-4c-2.2,0-4-1.8-4-4V26c0-2.2,1.8-4,4-4h4c2.2,0,4,1.8,4,4v12C46,40.2,44.2,42,42,42z M39,38h2 c0.6,0,1-0.4,1-1V27c0-0.6-0.4-1-1-1h-2c-0.6,0-1,0.4-1,1v10C38,37.6,38.4,38,39,38z"/>
  <linearGradient id="SVGID_3_" x1="24" x2="24" y1="22" y2="33.775" gradientUnits="userSpaceOnUse">
    <stop offset="0" stop-color="#6dc7ff"/>
    <stop offset="1" stop-color="#e6abff"/>
  </linearGradient>
  <path fill="url(#SVGID_3_)" d="M18,26v12c0,2.2,1.8,4,4,4h4c2.2,0,4-1.8,4-4V26c0-2.2-1.8-4-4-4h-4C19.8,22,18,23.8,18,26z M26,27v3.2 c0,0.7-0.6,1.1-1.2,1l-2-0.5c-0.4-0.1-0.8-0.5-0.8-1V27c0-0.6,0.4-1,1-1h2C25.6,26,26,26.4,26,27z M22,37v-1.2c0-0.7,0.6-1.1,1.2-1 l2,0.5c0.4,0.1,0.8,0.5,0.8,1V37c0,0.6-0.4,1-1,1h-2C22.4,38,22,37.6,22,37z"/>
</svg>
